<svg xmlns:inkscape="http://www.inkscape.org/namespaces/inkscape" xmlns:sodipodi="http://sodipodi.sourceforge.net/DTD/sodipodi-0.dtd" xmlns="http://www.w3.org/2000/svg" xmlns:svg="http://www.w3.org/2000/svg" width="26" height="26" viewBox="0 0 26 26" fill="none" version="1.1" id="svg8" sodipodi:docname="instagram.svg" inkscape:version="1.1 (c4e8f9e, 2021-05-24)"><defs id="defs12"/><sodipodi:namedview id="namedview10" pagecolor="#ffffff" bordercolor="#666666" borderopacity="1.0" inkscape:pageshadow="2" inkscape:pageopacity="0.0" inkscape:pagecheckerboard="0" showgrid="false" inkscape:zoom="22.038462" inkscape:cx="13" inkscape:cy="13" inkscape:window-width="1440" inkscape:window-height="801" inkscape:window-x="0" inkscape:window-y="23" inkscape:window-maximized="0" inkscape:current-layer="svg8"/><path d="M15.4883 13C15.4883 14.3741 14.3741 15.4883 13 15.4883C11.6259 15.4883 10.5117 14.3741 10.5117 13C10.5117 11.6259 11.6259 10.5117 13 10.5117C14.3741 10.5117 15.4883 11.6259 15.4883 13Z" fill="white" id="path2" style="fill:#000000;fill-opacity:1"/><path d="M18.8191 8.5973C18.6992 8.27332 18.5088 7.9798 18.2605 7.7391C18.0198 7.49129 17.7262 7.30035 17.4023 7.18051C17.1392 7.07844 16.7441 6.95656 16.0164 6.92355C15.2293 6.8875 14.9932 6.87988 13 6.87988C11.0069 6.87988 10.7707 6.8875 9.98362 6.92355C9.25592 6.95707 8.86033 7.07844 8.59779 7.18051C8.2733 7.30035 7.98029 7.49078 7.73959 7.7391C7.49178 7.9798 7.30084 8.27332 7.181 8.5973C7.07893 8.86035 6.95705 9.25543 6.92404 9.98363C6.88799 10.7707 6.88037 11.0069 6.88037 13C6.88037 14.9932 6.88799 15.2293 6.92404 16.0164C6.95705 16.7441 7.07893 17.1392 7.181 17.4023C7.30084 17.7267 7.49127 18.0198 7.73959 18.2605C7.98029 18.5083 8.27381 18.6992 8.59779 18.819C8.86084 18.9216 9.25592 19.043 9.98412 19.076C10.7712 19.1121 11.0069 19.1197 13.0005 19.1197C14.9942 19.1197 15.2303 19.1121 16.0169 19.076C16.7446 19.043 17.1402 18.9211 17.4033 18.819C18.0543 18.5677 18.5687 18.0533 18.8201 17.4023C18.9221 17.1392 19.044 16.7441 19.077 16.0164C19.1131 15.2293 19.1207 14.9932 19.1207 13C19.1207 11.0069 19.1131 10.7707 19.077 9.98363C19.043 9.25593 18.9216 8.86035 18.8191 8.5973ZM13 16.833C10.883 16.833 9.16655 15.1171 9.16655 13C9.16655 10.883 10.883 9.16707 13 9.16707C15.1171 9.16707 16.833 10.883 16.833 13C16.833 15.1171 15.1171 16.833 13 16.833ZM16.9848 9.91101C16.4902 9.91101 16.0891 9.50984 16.0891 9.01523C16.0891 8.52062 16.4902 8.11945 16.9848 8.11945C17.4794 8.11945 17.8806 8.52062 17.8806 9.01523C17.8806 9.50984 17.4794 9.91101 16.9848 9.91101Z" fill="white" id="path4" style="fill:#000000;fill-opacity:1"/><path d="M13 0C5.82156 0 0 5.82156 0 13C0 20.1784 5.82156 26 13 26C20.1784 26 26 20.1784 26 13C26 5.82156 20.1784 0 13 0ZM20.4196 16.0779C20.3836 16.8726 20.2571 17.4149 20.0728 17.8897C19.6848 18.8927 18.8921 19.6854 17.8897 20.0728C17.4149 20.2571 16.8721 20.3836 16.0779 20.4196C15.2816 20.4562 15.0277 20.4648 13 20.4648C10.9723 20.4648 10.7184 20.4562 9.92215 20.4196C9.12793 20.3836 8.58508 20.2571 8.11027 20.0728C7.61211 19.8854 7.16066 19.5914 6.78793 19.2116C6.40809 18.8388 6.11457 18.3874 5.92719 17.8892C5.74285 17.4144 5.61641 16.8716 5.58035 16.0773C5.54379 15.2816 5.53516 15.0272 5.53516 13C5.53516 10.9728 5.54379 10.7184 5.58035 9.92215C5.61641 9.12742 5.74285 8.58508 5.92719 8.11027C6.11457 7.61211 6.40859 7.16066 6.78844 6.78793C7.16117 6.40809 7.61262 6.11406 8.11078 5.92668C8.58559 5.74234 9.12844 5.6159 9.92266 5.57984C10.7189 5.54379 10.9728 5.53465 13.0005 5.53465C15.0282 5.53465 15.2821 5.54328 16.0784 5.57984C16.8731 5.6159 17.4154 5.74234 17.8902 5.92617C18.3884 6.11355 18.8398 6.40758 19.2126 6.78742C19.5924 7.16016 19.8864 7.6116 20.0733 8.10977C20.2582 8.58457 20.3841 9.12742 20.4207 9.92164C20.4567 10.7179 20.4654 10.9718 20.4654 12.9995C20.4654 15.0272 20.4562 15.2816 20.4196 16.0779Z" fill="white" id="path6" style="fill:#000000;fill-opacity:1"/></svg>
