<svg xmlns="http://www.w3.org/2000/svg" width="26" height="26" viewBox="0 0 26 26" fill="none"><path d="M13 0C5.82103 0 0 5.82103 0 13C0 20.179 5.82103 26 13 26C20.179 26 26 20.179 26 13C26 5.82103 20.179 0 13 0ZM19.4119 10.9515C19.4189 11.0836 19.4212 11.218 19.4212 11.3524C19.4212 15.4586 16.2952 20.1929 10.5807 20.1929C8.82656 20.1929 7.19287 19.6784 5.81872 18.7979C6.06203 18.8257 6.30998 18.8419 6.56025 18.8419C8.01551 18.8419 9.35722 18.346 10.4209 17.5118C9.06061 17.4863 7.91355 16.5872 7.51729 15.3544C7.70731 15.3914 7.90196 15.41 8.10125 15.41C8.38396 15.41 8.65972 15.3729 8.91925 15.3011C7.49875 15.016 6.42585 13.7601 6.42585 12.2538C6.42585 12.2399 6.42585 12.2283 6.42585 12.2144C6.84528 12.4485 7.32496 12.5875 7.83244 12.6037C6.99822 12.0476 6.44902 11.0952 6.44902 10.0176C6.44902 9.44759 6.60196 8.91462 6.87077 8.45579C8.4025 10.3374 10.692 11.5725 13.2758 11.7023C13.2225 11.4752 13.1947 11.2365 13.1947 10.9932C13.1947 9.27843 14.5873 7.88574 16.3021 7.88574C17.1966 7.88574 18.003 8.26346 18.5708 8.86595C19.2775 8.72692 19.9426 8.46738 20.5451 8.11283C20.3134 8.83815 19.8198 9.44759 19.1779 9.83226C19.8059 9.75811 20.4061 9.59127 20.9622 9.34332C20.5451 9.96667 20.0191 10.5135 19.4119 10.9515Z" fill="#18191F"/></svg>
