<svg xmlns="http://www.w3.org/2000/svg" xmlns:xlink="http://www.w3.org/1999/xlink" version="1.1" id="Слой_1" x="0px" y="0px" viewBox="0 0 478 478" style="enable-background:new 0 0 478 478;" xml:space="preserve"><style type="text/css"> .st0{fill:#FFFFFF;}
</style><circle cx="239" cy="239" r="239"/><path class="st0" d="M238.47,357.95c-39.44,0-78.89,0.02-118.33-0.02c-12.86-0.01-24.15-4.27-33.82-12.85 c-11.27-10.01-16.86-22.68-17.01-37.53c-0.26-25.44-0.06-50.89-0.08-76.34c-0.01-18.96,0.05-37.92-0.09-56.88 c-0.07-9.48,1.62-18.57,6.16-26.86c6.65-12.15,16.71-20.41,30.02-24.48c5.43-1.66,11.01-2.19,16.71-2.18 c78.64,0.05,157.27,0,235.91,0.07c12.59,0.01,23.66,4.35,33.11,12.74c11.54,10.25,17.07,23.23,17.13,38.49 c0.13,34.51,0.09,69.02,0.09,103.53c0,11.56,0.22,23.13-0.25,34.67c-0.46,11.25-4.54,21.36-12,29.88 c-10.41,11.91-23.63,17.78-39.48,17.77C317.19,357.93,277.83,357.95,238.47,357.95z M205,296.62 c32.43-21.39,64.35-42.44,96.63-63.73c-32.4-21.35-64.38-42.42-96.63-63.67C205,211.89,205,253.94,205,296.62z"/></svg>
