<svg xmlns="http://www.w3.org/2000/svg" width="30" height="30" viewBox="0 0 30 30" fill="none">
    <path fill-rule="evenodd" clip-rule="evenodd" d="M0 15C0 6.7275 6.7275 0 15 0C23.2725 0 30 6.7275 30 15C30 23.2725 23.2725 30 15 30C6.7275 30 0 23.2725 0 15ZM3.00007 14.9999C3.00007 21.6153 8.38466 26.9999 15.0001 26.9999C21.6155 26.9999 27.0001 21.6153 27.0001 14.9999C27.0001 8.38452 21.6155 2.99993 15.0001 2.99993C8.38466 2.99993 3.00007 8.38452 3.00007 14.9999ZM14.9445 10.9699C16.113 9.71481 17.535 9.00006 19.4558 9.00006H20.3003V13.5556C15.7223 13.5556 14.9445 13.6219 14.9445 15.3113V21.0001H10.5V9.00006H14.9445V10.9699Z" fill="#FF5252"/>
</svg>
